<svg width="30" height="30" viewBox="0 0 30 30" fill="none" xmlns="http://www.w3.org/2000/svg">
<path d="M30 0L0 0L-3.05176e-05 30L30 0Z" fill="#5584FF"/>
<path d="M14.1957 5.51201H11.9877C12.3957 4.97201 12.7917 4.31201 13.1877 3.53201L12.0117 3.10001C11.6517 3.96401 11.2317 4.76801 10.7397 5.51201H6.23971L7.00771 5.12801C6.62371 4.45601 6.21571 3.83201 5.80771 3.28001L4.77571 3.78401C5.18371 4.28801 5.57971 4.86401 5.96371 5.51201H3.80371V8.41601H4.93171V6.60401H13.0557V8.41601H14.1957V5.51201ZM5.75971 7.36001V8.36801H10.6077C10.1037 8.62001 9.41971 8.93201 8.57971 9.29201V10.204H3.83971V11.284H8.57971V12.724C8.57971 13.024 8.44771 13.18 8.19571 13.18C7.67971 13.18 7.21171 13.168 6.77971 13.156L7.05571 14.188H8.57971C9.33571 14.188 9.71971 13.828 9.71971 13.12V11.284H14.1957V10.204H9.71971V9.78401C10.6557 9.32801 11.4957 8.86001 12.2517 8.36801V7.36001H5.75971ZM8.67571 3.04001L7.64371 3.54401C8.05171 4.12001 8.43571 4.76801 8.79571 5.50001L9.81571 4.98401C9.45571 4.27601 9.07171 3.62801 8.67571 3.04001Z" fill="white"/>
</svg>
