<?xml version="1.0" standalone="no"?><!DOCTYPE svg PUBLIC "-//W3C//DTD SVG 1.1//EN" "http://www.w3.org/Graphics/SVG/1.1/DTD/svg11.dtd"><svg t="1628664617383" class="icon" viewBox="0 0 1024 1024" version="1.1" xmlns="http://www.w3.org/2000/svg" p-id="1632" xmlns:xlink="http://www.w3.org/1999/xlink" width="200" height="200"><defs><style type="text/css"></style></defs><path d="M943.26 668.4h-22.25c-14.91 0-22.38-18.03-11.83-28.57l15.73-15.73c6.54-6.54 6.54-17.13 0-23.67l-61.11-61.11c-3.27-3.27-7.55-4.9-11.83-4.9s-8.57 1.63-11.83 4.9l-15.73 15.73c-3.41 3.41-7.6 4.94-11.71 4.94-8.6 0-16.86-6.68-16.86-16.77v-22.25c0-9.24-7.49-16.74-16.74-16.74h-86.42c-9.24 0-16.74 7.49-16.74 16.74v22.25c0 10.09-8.25 16.77-16.86 16.77-4.11 0-8.3-1.53-11.71-4.94l-15.73-15.73c-3.27-3.27-7.55-4.9-11.83-4.9s-8.57 1.63-11.83 4.9l-61.11 61.11c-6.54 6.54-6.54 17.13 0 23.67l15.73 15.73c10.54 10.54 3.08 28.57-11.83 28.57h-22.25c-9.24 0-16.74 7.49-16.74 16.74v86.42c0 9.24 7.49 16.74 16.74 16.74h22.25c14.91 0 22.38 18.03 11.83 28.57l-15.73 15.73c-6.54 6.54-6.54 17.13 0 23.67l61.11 61.11c3.27 3.27 7.55 4.9 11.83 4.9s8.57-1.63 11.83-4.9l15.73-15.73c3.41-3.41 7.6-4.94 11.71-4.94 8.6 0 16.86 6.68 16.86 16.77v22.25c0 9.24 7.49 16.74 16.74 16.74h86.42c9.24 0 16.74-7.49 16.74-16.74v-22.25c0-10.09 8.25-16.77 16.86-16.77 4.11 0 8.3 1.53 11.71 4.94l15.73 15.73c3.27 3.27 7.55 4.9 11.83 4.9s8.57-1.63 11.83-4.9l61.11-61.11c6.54-6.54 6.54-17.13 0-23.67l-15.73-15.73c-10.54-10.54-3.08-28.57 11.83-28.57h22.25c9.24 0 16.74-7.49 16.74-16.74v-86.42c0-9.25-7.49-16.74-16.74-16.74zM910 739.19c-22.49 3.73-41.7 18.72-50.64 40.29-8.94 21.57-5.95 45.76 7.32 64.3l-15.34 15.34c-11.23-8.07-24.62-12.42-38.65-12.42-33.11 0-60.67 24.16-65.95 55.75h-21.71c-5.28-31.59-32.84-55.75-65.95-55.75-14.02 0-27.41 4.35-38.65 12.42l-15.34-15.34c13.27-18.53 16.25-42.72 7.32-64.3-8.94-21.57-28.15-36.57-50.64-40.29v-21.7c22.49-3.73 41.7-18.72 50.64-40.29 8.94-21.57 5.95-45.76-7.32-64.3l15.34-15.34c11.23 8.07 24.62 12.42 38.65 12.42 33.11 0 60.67-24.16 65.95-55.75h21.71c5.28 31.59 32.84 55.75 65.95 55.75 14.02 0 27.41-4.35 38.65-12.42l15.34 15.34c-13.27 18.53-16.25 42.72-7.31 64.3 8.94 21.57 28.15 36.57 50.64 40.29v21.7z" p-id="1633"></path><path d="M735.89 653.34c-41.36 0-75 33.64-75 75s33.64 75 75 75 75-33.64 75-75-33.64-75-75-75z m0 100c-13.79 0-25-11.21-25-25s11.21-25 25-25 25 11.21 25 25-11.21 25-25 25zM164.68 503.34c-8.37 0-15.16 6.79-15.16 15.16v29.69c0 8.37 6.79 15.16 15.16 15.16h94.21c8.37 0 15.16-6.79 15.16-15.16V518.5c0-8.37-6.79-15.16-15.16-15.16h-94.21zM735.48 276.22l-66.62 66.62c-5.92 5.92-5.92 15.52 0 21.43l20.99 20.99c5.92 5.92 15.52 5.92 21.43 0l66.62-66.62c5.92-5.92 5.92-15.52 0-21.43l-20.99-20.99c-5.92-5.92-15.52-5.92-21.43 0zM499.36 178c-8.37 0-15.16 6.79-15.16 15.16v94.21c0 8.37 6.79 15.16 15.16 15.16h29.69c8.37 0 15.16-6.79 15.16-15.16v-94.21c0-8.37-6.79-15.16-15.16-15.16h-29.69zM334.37 385.26l20.99-20.99c5.92-5.92 5.92-15.52 0-21.43l-66.62-66.62c-5.92-5.92-15.52-5.92-21.43 0l-20.99 20.99c-5.92 5.92-5.92 15.52 0 21.43l66.62 66.62c5.92 5.92 15.51 5.92 21.43 0zM521.67 550.14l80.98-80.98c4.69-4.69 4.69-12.28 0-16.97l-25.46-25.46c-4.69-4.69-12.28-4.69-16.97 0l-80.98 80.98c-17.7-3.73-36.88 1.33-50.55 15.2-21.42 21.73-20.66 57.95 1.62 78.79 21.56 20.18 55.41 19.74 76.44-1.29 13.66-13.65 18.62-32.69 14.92-50.27z" p-id="1634"></path><path d="M447.12 772.67H219.87c-1.24 0-2.42-0.54-3.23-1.48-26.3-30.8-47.46-65.24-63.05-102.72C133.96 621.28 124 571.18 124 519.55c0-52.41 10.25-103.21 30.47-151.01 19.54-46.2 47.52-87.7 83.18-123.35 35.65-35.65 77.15-63.64 123.35-83.18 47.8-20.22 98.6-30.47 151.01-30.47s103.21 10.25 151.01 30.47c46.2 19.54 87.7 47.52 123.35 83.18 35.65 35.65 63.64 77.15 83.18 123.35 11.76 27.81 20.15 56.64 25.11 86.21 2.41 14.37 14.9 24.86 29.47 24.86 18.55 0 32.74-16.65 29.66-34.95-34.65-205.75-209.54-363.9-422.97-372.72-261.77-10.82-477.9 205.9-466.38 467.64 4.98 113.27 52.03 215.62 125.9 291.81 0.8 0.82 1.9 1.29 3.05 1.29h254.09c16.47 0 29.82-13.35 29.82-29.82 0-16.67-13.52-30.19-30.18-30.19z" p-id="1635"></path></svg>