<svg width="20" height="20" viewBox="0 0 20 20" fill="none" xmlns="http://www.w3.org/2000/svg">
<path fill-rule="evenodd" clip-rule="evenodd" d="M5.00033 17.7087C5.00033 18.0539 5.28015 18.3337 5.62533 18.3337H14.3753L14.4601 18.328C14.7652 18.2866 15.0003 18.0251 15.0003 17.7087C15.0003 17.3635 14.7205 17.0837 14.3753 17.0837L12.9162 17.0833V15.0017L16.4577 15.0019L16.5861 14.9976C17.5617 14.9316 18.3327 14.1193 18.3327 13.1269V4.375L18.3284 4.24663C18.2624 3.27097 17.4501 2.5 16.4577 2.5H3.54199L3.41362 2.50433C2.43796 2.5703 1.66699 3.38261 1.66699 4.375V13.1269L1.67132 13.2553C1.73729 14.2309 2.54961 15.0019 3.54199 15.0019L7.08283 15.0017V17.0833L5.62533 17.0837L5.54052 17.0894C5.23545 17.1308 5.00033 17.3923 5.00033 17.7087ZM8.33199 15.0017H11.6653L11.6662 17.0837H8.33283L8.33199 15.0017ZM9.16699 5H10.8337V9.16667H9.16699V5ZM9.16699 10H10.8337V11.6667H9.16699V10Z" fill="#86909C"/>
</svg>
