<?xml version="1.0" standalone="no"?><!DOCTYPE svg PUBLIC "-//W3C//DTD SVG 1.1//EN" "http://www.w3.org/Graphics/SVG/1.1/DTD/svg11.dtd"><svg t="1624357945154" class="icon" viewBox="0 0 1024 1024" version="1.1" xmlns="http://www.w3.org/2000/svg" p-id="4550" xmlns:xlink="http://www.w3.org/1999/xlink" width="200" height="200"><defs><style type="text/css"></style></defs><path d="M512 192c176.73 0 320 143.268 320 320 0 176.73-143.27 320-320 320-176.732 0-320-143.27-320-320 0-176.732 143.268-320 320-320z" fill="#4988FD" p-id="4551"></path><path d="M636.974 702H388c-16.568 0-30-13.432-30-30s13.432-30 30-30h248.974c16.568 0 30 13.432 30 30s-13.432 30-30 30z" fill="#D0E1FD" p-id="4552"></path><path d="M512.174 702.006a29.9 29.9 0 0 1-21.212-8.788l-134.35-134.35c-11.716-11.714-11.716-30.71 0-42.426 11.714-11.716 30.71-11.716 42.426 0l134.352 134.35c11.714 11.714 11.714 30.71 0 42.426a29.916 29.916 0 0 1-21.216 8.788z" fill="#D0E1FD" p-id="4553"></path><path d="M511.818 702.006a29.896 29.896 0 0 1-21.212-8.788c-11.716-11.714-11.716-30.71 0-42.426l134.35-134.35c11.716-11.716 30.712-11.716 42.426 0 11.716 11.714 11.716 30.71 0 42.426l-134.35 134.35a29.912 29.912 0 0 1-21.214 8.788z" fill="#D0E1FD" p-id="4554"></path><path d="M512 702c-16.568 0-30-13.432-30-30V352c0-16.568 13.432-30 30-30s30 13.432 30 30v320c0 16.568-13.432 30-30 30z" fill="#D0E1FD" p-id="4555"></path></svg>
