<svg width="20" height="20" viewBox="0 0 20 20" fill="none" xmlns="http://www.w3.org/2000/svg">
<rect width="20" height="20" rx="10" transform="matrix(-1 0 0 1 20 0)" fill="#0F76F5"/>
<path d="M5.0625 12.1349C4.77656 10.6651 5.46268 9.42316 7.30828 8.2699C7.08975 7.77426 6.66733 7.83352 6.30788 7.88394C6.06425 7.91811 5.84955 7.94822 5.74685 7.79876C5.55169 7.51468 5.7556 7.36304 5.90611 7.25112C5.99282 7.18664 6.0618 7.13534 6.02655 7.07949C5.31341 5.94966 5.88478 5.53835 6.1887 5.63988C6.31665 5.68262 6.38427 5.83332 6.47229 6.02949C6.59335 6.29929 6.75299 6.65509 7.16126 6.93429C7.73542 7.327 7.93069 7.72812 7.98341 7.86354C8.66321 7.46781 9.15305 7.22599 9.47963 7.08123C9.81074 6.93444 10.1893 6.93448 10.5204 7.08123C10.8469 7.22595 11.3366 7.46769 12.016 7.86321C12.068 7.72914 12.2627 7.32702 12.8387 6.93336C13.2469 6.65436 13.4066 6.29882 13.5276 6.02921C13.6156 5.83318 13.6833 5.68258 13.8112 5.63987C14.1151 5.53841 14.6865 5.94943 13.9734 7.07846C13.9381 7.13427 14.0071 7.18553 14.0938 7.24995C14.2443 7.3618 14.4483 7.51332 14.2531 7.79722C14.1504 7.94655 13.9353 7.91683 13.6911 7.8831C13.3312 7.83337 12.9082 7.77494 12.6894 8.26845C14.5367 9.42212 15.2236 10.6644 14.9375 12.1349C14.633 13.7035 12.4565 14.375 10.0001 14.375C7.54351 14.375 5.36702 13.7035 5.0625 12.1349Z" fill="white"/>
</svg>
