<svg width="20" height="20" viewBox="0 0 20 20" fill="none" xmlns="http://www.w3.org/2000/svg">
<path d="M11.1115 3.22217C11.1115 2.66988 10.6638 2.22217 10.1115 2.22217H9.88932C9.33704 2.22217 8.88932 2.66988 8.88932 3.22217V3.44441C6.3535 3.95916 4.44488 6.2011 4.44488 8.88883V12.6666C4.44488 13.6485 3.64894 14.4444 2.6671 14.4444C2.42164 14.4444 2.22266 14.6434 2.22266 14.8888V14.9999C2.22266 15.3068 2.47139 15.5555 2.77821 15.5555H17.2227C17.5295 15.5555 17.7782 15.3068 17.7782 14.9999V14.8888C17.7782 14.6434 17.5792 14.4444 17.3338 14.4444C16.3519 14.4444 15.556 13.6485 15.556 12.6666V8.88883C15.556 6.2011 13.6474 3.95916 11.1115 3.44441V3.22217Z" fill="#86909C"/>
<path fill-rule="evenodd" clip-rule="evenodd" d="M8.52966 15C8.06832 15.4072 7.77734 16.003 7.77734 16.6667C7.77734 17.894 8.77227 18.8889 9.99957 18.8889C11.2269 18.8889 12.2218 17.894 12.2218 16.6667C12.2218 15.7991 11.7246 15.0476 10.9996 14.6816V15H8.52966Z" fill="#86909C"/>
</svg>
